<svg width="489" height="732" viewBox="0 0 489 732" fill="none" xmlns="http://www.w3.org/2000/svg">
<path d="M365.84 -32.9601L379.866 -11.7559C394.948 9.44611 421.415 51.8577 352.022 94.4666C281.572 137.078 112.621 179.891 42.1717 222.502C-27.2215 265.111 -0.754161 307.523 56.6105 349.871C112.919 392.221 197.484 434.513 197.543 476.979C197.603 519.445 113.157 562.085 99.2202 604.58C84.2272 647.077 142.384 689.423 169.614 710.6L197.9 731.775L620.427 730.905L620.397 709.672C620.367 688.439 620.308 645.973 620.248 603.507C620.189 561.041 620.129 518.576 620.07 476.11C620.01 433.644 619.951 391.178 619.891 348.712C619.832 306.246 619.772 263.78 619.713 221.314C619.653 178.848 619.594 136.382 619.534 93.9161C619.474 51.4501 619.415 8.98419 619.385 -12.2488L619.355 -33.4818L365.84 -32.9601Z" fill="white"/>
</svg>
